HIERARCHY
ROOT Hips
{
	OFFSET -0.001795 -0.223333 0.028219
	CHANNELS 6 Xposition Yposition Zposition Zrotation Yrotation Xrotation 
	JOINT LeftUpLeg
	{
		OFFSET 0.069520 -0.091406 -0.006815
		CHANNELS 3 Zrotation Yrotation Xrotation
		JOINT LeftLeg
		{
			OFFSET 0.034277 -0.375199 -0.004496
			CHANNELS 3 Zrotation Yrotation Xrotation
			JOINT LeftFoot
			{
				OFFSET -0.013596 -0.397961 -0.043693
				CHANNELS 3 Zrotation Yrotation Xrotation
				JOINT LeftToe
				{
					OFFSET 0.026358 -0.055791 0.119288
					CHANNELS 3 Zrotation Yrotation Xrotation
					End Site
					{
						OFFSET 0.000000 0.000000 0.000000
					}
				}
			}
		}
	}
	JOINT RightUpLeg
	{
		OFFSET -0.067670 -0.090522 -0.004320
		CHANNELS 3 Zrotation Yrotation Xrotation
		JOINT RightLeg
		{
			OFFSET -0.038290 -0.382569 -0.008850
			CHANNELS 3 Zrotation Yrotation Xrotation
			JOINT RightFoot
			{
				OFFSET 0.015774 -0.398415 -0.042312
				CHANNELS 3 Zrotation Yrotation Xrotation
				JOINT RightToe
				{
					OFFSET -0.025372 -0.048144 0.123348
					CHANNELS 3 Zrotation Yrotation Xrotation
					End Site
					{
						OFFSET 0.000000 0.000000 0.000000
					}
				}
			}
		}
	}
	JOINT Spine
	{
		OFFSET -0.002533 0.108963 -0.026696
		CHANNELS 3 Zrotation Yrotation Xrotation
		JOINT Spine1
		{
			OFFSET 0.005487 0.135180 0.001092
			CHANNELS 3 Zrotation Yrotation Xrotation
			JOINT Spine2
			{
				OFFSET 0.001457 0.052922 0.025425
				CHANNELS 3 Zrotation Yrotation Xrotation
				JOINT Neck
				{
					OFFSET -0.002778 0.213870 -0.042857
					CHANNELS 3 Zrotation Yrotation Xrotation
					JOINT Head
					{
						OFFSET 0.005152 0.064970 0.051349
						CHANNELS 3 Zrotation Yrotation Xrotation
						End Site
						{
							OFFSET 0.000000 0.000000 0.000000
						}
					}
				}
				JOINT LeftShoulder
				{
					OFFSET 0.078845 0.121749 -0.034090
					CHANNELS 3 Zrotation Yrotation Xrotation
					JOINT LeftArm
					{
						OFFSET 0.090977 0.030469 -0.008868
						CHANNELS 3 Zrotation Yrotation Xrotation
						JOINT LeftForeArm
						{
							OFFSET 0.259612 -0.012772 -0.027456
							CHANNELS 3 Zrotation Yrotation Xrotation
							JOINT LeftHand
							{
								OFFSET 0.249234 0.008986 -0.001171
								CHANNELS 3 Zrotation Yrotation Xrotation
								End Site
								{
									OFFSET 0.000000 0.000000 0.000000
								}
							}
						}
					}
				}
				JOINT RightShoulder
				{
					OFFSET -0.081759 0.118833 -0.038615
					CHANNELS 3 Zrotation Yrotation Xrotation
					JOINT RightArm
					{
						OFFSET -0.096012 0.032551 -0.009143
						CHANNELS 3 Zrotation Yrotation Xrotation
						JOINT RightForeArm
						{
							OFFSET -0.253742 -0.013329 -0.021401
							CHANNELS 3 Zrotation Yrotation Xrotation
							JOINT RightHand
							{
								OFFSET -0.255298 0.007772 -0.005559
								CHANNELS 3 Zrotation Yrotation Xrotation
								End Site
								{
									OFFSET 0.000000 0.000000 0.000000
								}
							}
						}
					}
				}
			}
		}
	}
}
MOTION
Frames: 15
Frame Time: 0.050000
0.000000 0.949858 0.000000 -0.443994 -0.389026 3.560505 1.751556 -0.000219 0.465770 -0.408183 0.154564 -3.617857 -7.166990 -7.528983 11.979273 0.000000 0.000000 0.000000 3.179796 -0.224135 0.929798 -3.025180 0.027721 -4.341401 4.350166 5.906016 7.610892 0.000000 0.000000 0.000000 2.611156 0.221719 -4.301990 -1.700510 0.816563 -1.135066 -1.027201 -1.380572 4.626704 3.285442 -1.406473 -11.883375 0.000000 0.000000 0.000000 -13.454556 -5.803056 1.774964 -11.210025 -3.485770 -1.177654 20.083384 -3.351722 -0.331316 0.000000 0.000000 0.000000 7.109905 1.876928 0.011989 13.190294 -4.240918 -1.431786 -13.968908 3.827355 -0.080390 0.000000 0.000000 0.000000 
-0.000820 0.949771 0.001746 -0.633768 0.142726 4.025981 2.520473 -0.007341 0.717609 -1.194160 0.243235 -4.882229 -7.567085 -7.889499 12.442032 0.000000 0.000000 0.000000 2.584467 -0.251530 1.336987 -1.378378 -0.151016 -5.713610 4.391797 5.663906 8.273315 0.000000 0.000000 0.000000 2.427800 0.215800 -4.361186 -1.869335 0.881497 0.449382 -1.326919 -1.275936 2.484871 3.014198 -1.016466 -13.176441 0.000000 0.000000 0.000000 -12.560607 -5.399241 1.456682 -11.730908 -3.355095 -1.155866 18.833373 -4.842570 -0.506040 0.000000 0.000000 0.000000 7.858626 -0.253258 -0.927922 13.112713 -5.739821 -1.473485 -12.646707 7.502446 -0.347973 0.000000 0.000000 0.000000 
-0.001423 0.949563 0.003087 -0.583042 -0.693838 3.881173 2.518893 0.035427 1.258726 -1.391499 0.266309 -5.204127 -7.193785 -7.375179 12.416775 0.000000 0.000000 0.000000 2.195806 -0.226584 1.262588 -0.889609 -0.154877 -5.232205 4.706227 6.363094 8.079059 0.000000 0.000000 0.000000 3.091411 0.202579 -3.946215 -2.949386 1.387418 -1.792408 -1.522590 -0.273944 4.579614 4.485400 -2.014353 -12.605888 0.000000 0.000000 0.000000 -11.342066 -4.890294 1.228589 -12.579194 -2.715725 -1.295756 18.606928 -4.967141 -0.532002 0.000000 0.000000 0.000000 8.765967 0.363444 -0.668450 14.214771 -6.472291 -1.745570 -14.576155 6.177993 -0.295121 0.000000 0.000000 0.000000 
-0.002101 0.950137 0.004294 -0.545569 -0.453368 4.555993 3.339086 -0.018063 0.934761 -2.782374 0.359529 -5.867816 -7.521151 -7.492516 13.166398 0.000000 0.000000 0.000000 2.129300 -0.179999 0.868693 -0.165993 -0.213062 -5.641298 4.022896 4.811155 8.255756 0.000000 0.000000 0.000000 2.470150 0.252190 -4.962414 -2.993269 1.409364 -1.161230 -0.990396 -1.044231 4.273565 3.848650 -1.590845 -13.246108 0.000000 0.000000 0.000000 -12.173607 -4.316818 1.043101 -13.576408 -0.974564 -1.518659 19.001601 -5.105913 -0.539585 0.000000 0.000000 0.000000 9.156611 1.183469 -0.446714 14.492328 -8.355412 -1.887516 -13.920322 6.371880 -0.307653 0.000000 0.000000 0.000000 
-0.002571 0.950447 0.005257 -0.369216 -0.495642 4.475301 3.051666 0.005349 1.141392 -2.570492 0.348914 -5.963322 -7.546481 -7.459557 13.310568 0.000000 0.000000 0.000000 2.186569 -0.181623 0.866096 -0.465136 -0.197375 -5.649295 3.946159 4.424693 8.630352 0.000000 0.000000 0.000000 2.083110 0.225228 -4.623130 -2.656026 1.253872 -1.253012 -1.235056 -0.768357 3.789239 4.052904 -1.752868 -12.607626 0.000000 0.000000 0.000000 -12.743745 -4.058398 0.829178 -13.923012 -0.076576 -1.590083 18.194004 -5.811868 -0.606010 0.000000 0.000000 0.000000 9.665003 0.607615 -0.715757 15.861569 -7.994285 -2.076942 -14.600028 6.453967 -0.331663 0.000000 0.000000 0.000000 
-0.002869 0.950274 0.006005 -0.137469 -0.280136 4.740074 2.515157 0.002391 0.893684 -1.996093 0.315732 -6.009885 -7.620246 -7.567798 13.289283 0.000000 0.000000 0.000000 1.623931 -0.134074 0.657242 0.199388 -0.223706 -5.393726 3.721291 4.317917 8.020624 0.000000 0.000000 0.000000 1.486124 0.222675 -4.807816 -2.708086 1.280256 -0.009004 -0.457594 -1.660911 2.896904 3.682674 -1.428075 -14.016289 0.000000 0.000000 0.000000 -13.212343 -2.835881 0.366435 -15.389586 0.483065 -1.814425 17.750302 -6.167907 -0.597292 0.000000 0.000000 0.000000 9.120663 0.529700 -0.822586 18.009405 -7.129915 -2.268728 -14.455738 6.576324 -0.360246 0.000000 0.000000 0.000000 
-0.002833 0.950366 0.006560 -0.054504 -0.232028 4.845843 2.513821 0.000700 0.879123 -2.148103 0.325908 -6.139446 -7.686721 -7.595836 13.429760 0.000000 0.000000 0.000000 1.606815 -0.080264 0.191061 0.121730 -0.183759 -4.459652 3.473403 4.197155 7.295291 0.000000 0.000000 0.000000 1.263085 0.203832 -4.532259 -2.522979 1.192403 0.002195 -0.297753 -1.794848 2.922564 3.618379 -1.397442 -14.059698 0.000000 0.000000 0.000000 -14.006083 -2.067138 -0.020891 -16.282237 0.781980 -1.953793 17.022959 -6.943028 -0.646290 0.000000 0.000000 0.000000 9.893989 0.605586 -0.896072 19.041177 -6.476065 -2.343079 -14.234501 6.807321 -0.376469 0.000000 0.000000 0.000000 
-0.002525 0.950310 0.007195 0.019164 -0.497300 5.040455 2.241971 0.011040 0.900437 -1.907727 0.319382 -6.427652 -7.561216 -7.406207 13.461804 0.000000 0.000000 0.000000 1.323201 0.022565 -0.645905 0.356834 -0.156099 -3.286015 3.484919 4.430103 6.889870 0.000000 0.000000 0.000000 1.212096 0.196285 -4.395075 -2.439339 1.152689 0.077274 -0.019753 -2.006597 3.268609 3.537504 -1.331456 -14.680574 0.000000 0.000000 0.000000 -14.961461 -1.437697 -0.297806 -17.412775 0.842793 -2.130150 16.129766 -7.445720 -0.640059 0.000000 0.000000 0.000000 10.962895 0.603819 -1.073011 20.168080 -4.687403 -2.279273 -14.327311 6.898455 -0.398896 0.000000 0.000000 0.000000 
-0.002074 0.950019 0.008180 0.116682 -0.400737 5.110546 1.907935 0.023310 0.931262 -1.541719 0.301753 -6.525718 -7.581762 -7.477372 13.369719 0.000000 0.000000 0.000000 1.214056 0.071574 -1.056888 0.425820 -0.143248 -2.780944 3.280353 3.973555 6.914831 0.000000 0.000000 0.000000 1.093779 0.187714 -4.266706 -2.323810 1.097153 0.498117 0.150507 -2.157713 3.279700 3.075755 -1.050071 -14.800443 0.000000 0.000000 0.000000 -15.396743 -1.125385 -0.453723 -19.461195 0.485530 -2.350075 15.528482 -8.888589 -0.740973 0.000000 0.000000 0.000000 11.792332 0.869409 -1.074555 21.950340 -3.389452 -2.322144 -14.411814 7.423819 -0.457057 0.000000 0.000000 0.000000 
-0.001668 0.950060 0.009657 0.239887 -0.515484 5.157606 1.732182 0.035925 1.018012 -1.543352 0.303601 -6.580455 -7.552670 -7.414919 13.423577 0.000000 0.000000 0.000000 1.261006 0.114284 -1.457431 0.025074 -0.091802 -2.268842 3.287198 3.875813 7.091290 0.000000 0.000000 0.000000 1.020861 0.181083 -4.146613 -2.288204 1.080012 0.895947 0.484829 -2.385197 3.276317 2.863934 -0.908229 -15.321707 0.000000 0.000000 0.000000 -16.367099 -0.580725 -0.712657 -21.343700 0.412933 -2.594146 14.972083 -11.293022 -0.911901 0.000000 0.000000 0.000000 12.754166 1.013117 -1.187286 23.386701 -1.779169 -2.225526 -14.320983 8.362864 -0.553675 0.000000 0.000000 0.000000 
-0.001308 0.949213 0.011682 0.296585 -0.334649 5.056479 1.515491 0.084985 1.554043 -1.276423 0.301993 -7.123792 -7.633278 -7.597371 13.288435 0.000000 0.000000 0.000000 1.054552 0.137801 -1.618610 0.228596 -0.093932 -1.874943 3.250390 3.716630 7.265247 0.000000 0.000000 0.000000 1.085222 0.170807 -3.935493 -2.427302 1.146295 1.383323 0.713187 -2.669488 2.983944 2.424584 -0.641775 -15.545117 0.000000 0.000000 0.000000 -17.569997 -0.797692 -0.624221 -23.214730 0.449934 -2.834945 14.499423 -13.935481 -1.091934 0.000000 0.000000 0.000000 13.933868 1.764653 -1.032269 25.479805 -0.905732 -2.261016 -14.679107 9.965563 -0.744806 0.000000 0.000000 0.000000 
-0.001152 0.948880 0.014209 0.414813 -0.907380 5.113455 1.214084 0.086953 1.420663 -1.123990 0.284293 -6.594042 -7.268894 -7.248969 12.952140 0.000000 0.000000 0.000000 1.099665 0.183172 -2.062353 -0.295485 -0.016772 -1.109751 3.457077 4.223103 7.065668 0.000000 0.000000 0.000000 1.017844 0.143214 -3.370187 -2.567325 1.216986 1.009882 1.161145 -2.563672 3.223087 2.229430 -0.488457 -16.408159 0.000000 0.000000 0.000000 -19.099770 -0.624203 -0.719999 -25.780903 0.811913 -3.252286 13.495817 -17.685840 -1.254652 0.000000 0.000000 0.000000 15.589464 2.016161 -1.170459 27.539438 0.475067 -2.183788 -15.064186 12.330959 -1.034355 0.000000 0.000000 0.000000 
-0.001443 0.948303 0.017291 0.469322 -1.028230 5.156836 0.937907 0.119029 1.681756 -0.742426 0.269615 -6.754971 -7.163983 -7.196955 12.751202 0.000000 0.000000 0.000000 0.748188 0.268024 -2.798995 0.608747 -0.072625 -0.313984 3.088261 2.912251 7.945232 0.000000 0.000000 0.000000 1.139191 0.140647 -3.307793 -2.407661 1.141269 1.389206 1.072403 -2.430277 3.129530 1.807018 -0.191899 -16.885276 0.000000 0.000000 0.000000 -20.893679 -1.207046 -0.520685 -28.345060 0.815563 -3.574885 11.898004 -20.619105 -1.206856 0.000000 0.000000 0.000000 17.845956 3.035842 -0.910763 30.197458 1.788008 -2.114762 -15.601168 14.977021 -1.377502 0.000000 0.000000 0.000000 
-0.002315 0.947495 0.021091 0.563129 -1.714458 5.266446 0.642811 0.070010 0.980991 -0.783003 0.199960 -4.152401 -5.656451 -6.380693 9.554366 0.000000 0.000000 0.000000 0.870520 0.344809 -3.553120 0.268434 -0.014730 0.318605 3.240492 2.623251 8.918771 0.000000 0.000000 0.000000 1.313861 0.128440 -3.047595 -2.881506 1.375903 1.293750 1.834860 -2.685450 3.283441 1.141191 0.174415 -17.801887 0.000000 0.000000 0.000000 -22.309862 -1.262251 -0.317708 -32.633273 1.608016 -4.383723 10.269346 -24.499819 -1.055169 0.000000 0.000000 0.000000 19.799017 4.270079 -0.691688 33.598815 2.706264 -2.065058 -15.663578 18.210504 -1.793298 0.000000 0.000000 0.000000 
-0.003753 0.945630 0.025713 0.468065 -1.763972 4.984112 0.613271 0.043127 0.657406 -0.652814 0.103354 -1.103916 -4.425051 -6.284420 5.504575 0.000000 0.000000 0.000000 0.851198 0.328808 -3.397491 0.652249 -0.024534 1.175120 3.079537 2.743005 8.062162 0.000000 0.000000 0.000000 1.590776 0.090538 -2.344102 -2.851043 1.362179 1.280704 1.825115 -2.516806 3.145918 0.590282 0.519871 -18.032677 0.000000 0.000000 0.000000 -24.144660 -2.292545 0.184979 -36.027482 2.018065 -4.952726 8.508497 -27.796112 -0.782550 0.000000 0.000000 0.000000 23.014715 5.517168 -0.315877 36.659854 3.569818 -1.985954 -14.153411 20.981439 -1.847527 0.000000 0.000000 0.000000 
